<svg width="42" height="28" viewBox="0 0 42 28" fill="none" xmlns="http://www.w3.org/2000/svg"><path d="M3.94872 2.5H38.0513C38.8584 2.5 39.5 3.14274 39.5 3.92V24.08C39.5 24.8573 38.8584 25.5 38.0513 25.5H3.94872C3.1416 25.5 2.5 24.8573 2.5 24.08V3.92C2.5 3.14275 3.14161 2.5 3.94872 2.5Z" fill="white" stroke="white"></path><path d="M23.5525 14C23.5525 18.7589 19.6947 22.616 14.936 22.616C10.1773 22.616 6.32001 18.7587 6.32001 14C6.32001 9.24162 10.1774 5.384 14.936 5.384C19.6946 5.384 23.5525 9.24176 23.5525 14" fill="#D9222A"></path><path d="M20.7195 7.61418C20.408 7.89685 20.1172 8.20155 19.8495 8.52598H21.5903C21.8287 8.81576 22.048 9.12061 22.2472 9.43861H19.1927C19.009 9.73242 18.8433 10.0371 18.6963 10.351H22.7433C22.8822 10.6479 23.004 10.9524 23.1081 11.2632H18.3315C18.2312 11.5625 18.1476 11.8671 18.0811 12.1756H23.3582C23.4873 12.7751 23.5523 13.3867 23.5522 14C23.5522 14.9568 23.396 15.8774 23.108 16.737H18.3314C18.4353 17.048 18.557 17.3526 18.696 17.6494H22.7432C22.5961 17.9634 22.4303 18.2681 22.2466 18.5621H19.1926C19.3919 18.8803 19.6116 19.1851 19.8494 19.4739H21.5898C21.3225 19.7989 21.0316 20.1039 20.7196 20.3864C22.2489 21.7721 24.2772 22.6162 26.5036 22.6162C31.2622 22.6162 35.1201 18.7589 35.1201 14.0002C35.1201 9.242 31.2623 5.38424 26.5036 5.38424C24.2773 5.38381 22.2487 6.22842 20.7195 7.61418Z" fill="#EE9F2D"></path><rect x="18" y="13" width="6" height="1" fill="#EE9F2D"></rect><rect x="18" y="15" width="6" height="1" fill="#EE9F2D"></rect></svg>