<svg width="42" height="28" viewBox="0 0 42 28" fill="none" xmlns="http://www.w3.org/2000/svg"><path d="M3.94872 2.00005H38.0513C39.1276 2.00005 40 2.85796 40 3.91622V24.036C40 25.0943 39.1276 25.9521 38.0513 25.9521H3.94872C2.87249 25.9521 2 25.0943 2 24.036V3.91622C2 2.85796 2.87249 2.00005 3.94872 2.00005Z" fill="#2557D6" stroke="white"></path><path fill-rule="evenodd" clip-rule="evenodd" d="M2.01212 13.3942H3.83736L4.24891 12.443H5.17028L5.58076 13.3942H9.17207V12.667L9.49265 13.3973H11.357L11.6776 12.6562V13.3942H20.6027L20.5986 11.8329H20.7712C20.8921 11.837 20.9274 11.8477 20.9274 12.039V13.3942H25.5435V13.0308C25.9159 13.2219 26.495 13.3942 27.257 13.3942H29.199L29.6146 12.4431H30.536L30.9424 13.3942H34.6847V12.4908L35.2514 13.3942H38.2503V7.42184H35.2824V8.12716L34.8669 7.42184H31.8215V8.12716L31.4399 7.42184H27.3264C26.6379 7.42184 26.0326 7.51393 25.5436 7.77055V7.42184H22.705V7.77055C22.3938 7.50604 21.9699 7.42184 21.4984 7.42184H11.1273L10.4315 8.96434L9.71685 7.42184H6.45036V8.12716L6.09146 7.42184H3.30565L2.01187 10.2613V13.3941H2.01202L2.01212 13.3942ZM13.5337 12.5327H12.4386L12.4345 9.17904L10.8855 12.5327H9.94753L8.39446 9.17606V12.5327H6.22167L5.8112 11.5776H3.58688L3.17227 12.5327H2.01197L3.92497 8.25064H5.51222L7.32908 12.3049V8.25064H9.07267L10.4707 11.1555L11.755 8.25064H13.5336L13.5337 12.5327ZM4.71491 8.98179L5.44606 10.6889H3.9878L4.71491 8.98179ZM17.8919 12.5326H14.3233V8.25059H17.8919V9.14228H15.3916V9.91414H17.832V10.7919H15.3915V11.6471H17.8919L17.8919 12.5326ZM22.1683 10.5452C22.4454 10.4393 22.921 10.0866 22.921 9.40387C22.921 8.92622 22.7183 8.64698 22.3803 8.45568C22.035 8.26439 21.6327 8.25059 21.0868 8.25059H18.6297V12.5327H19.698V10.9751H20.8448C21.2294 10.9751 21.4673 11.0078 21.6234 11.1584C21.7981 11.3436 21.795 11.6616 21.7926 11.9111V11.9114V11.9116V11.9119V11.9121C21.7923 11.9399 21.792 11.9668 21.792 11.9926L21.7961 12.5326H22.8736V11.6915C22.8736 11.309 22.8476 11.1188 22.6968 10.9058C22.6018 10.7811 22.402 10.6304 22.1683 10.5452ZM21.5706 10.0397C21.4238 10.1251 21.2502 10.1279 21.0421 10.1279H19.7444V9.17679H21.0598C21.2459 9.17679 21.4402 9.18479 21.5665 9.25401C21.705 9.31641 21.7907 9.44916 21.7907 9.63256C21.7907 9.81976 21.7091 9.97035 21.5706 10.0397ZM23.5443 12.5326H24.6343V8.25059H23.5443V12.5326ZM37.2878 12.5326H35.774L33.7492 9.31871V12.5326H31.5735L31.1579 11.5775H28.9387L28.5355 12.5326H27.2852C26.766 12.5326 26.1084 12.4226 25.7362 12.059C25.3608 11.6955 25.1655 11.203 25.1655 10.4243C25.1655 9.78924 25.2822 9.20868 25.7413 8.74989C26.0867 8.40815 26.6276 8.25059 27.3637 8.25059H28.3979V9.16812H27.3853C26.9955 9.16812 26.7753 9.22369 26.5633 9.42176C26.3812 9.60209 26.2563 9.9429 26.2563 10.3917C26.2563 10.8505 26.3514 11.1813 26.5499 11.3974C26.7143 11.5668 27.0133 11.6182 27.2944 11.6182H27.7742L29.2798 8.25074H30.8805L32.6892 12.3009V8.25079H34.3158L36.1936 11.233V8.25079H37.2878V12.5326ZM30.055 8.98184L30.7943 10.6889H29.3198L30.055 8.98184ZM40.01 19.3703L40.0096 19.3709V19.3701L40.01 19.3703ZM40.0096 19.3709C39.75 19.734 39.2446 19.9182 38.5604 19.9182H36.4973V18.9997H38.552C38.7558 18.9997 38.8984 18.974 38.9843 18.8937C39.0655 18.8218 39.1113 18.7204 39.1106 18.6144C39.1106 18.4895 39.0588 18.3905 38.9801 18.3311C38.9026 18.2657 38.7898 18.236 38.6037 18.236C38.5382 18.2339 38.4717 18.2322 38.4045 18.2304L38.4042 18.2304C37.4425 18.2055 36.3493 18.1771 36.3493 16.9103C36.3493 16.2892 36.7609 15.6352 37.8819 15.6352H40.0098V14.7831H38.0327C37.4361 14.7831 37.0026 14.9201 36.6957 15.1329V14.7831H33.7714C33.3037 14.7831 32.7548 14.8942 32.4952 15.1329V14.7831H27.2731V15.1329C26.8576 14.8456 26.1564 14.7831 25.8326 14.7831H22.3881V15.1329C22.0593 14.8278 21.3282 14.7831 20.8824 14.7831H17.0274L16.1454 15.6978L15.3191 14.7831H9.56026V20.7593H15.2104L16.1194 19.8301L16.9757 20.7593L20.4585 20.7623V19.3565H20.8007C21.2628 19.3633 21.8079 19.3454 22.2887 19.1463V20.7591H25.1615V19.2015H25.3C25.4769 19.2015 25.4943 19.2085 25.4943 19.3777V20.759H34.221C34.775 20.759 35.3542 20.6231 35.6749 20.3765V20.759H38.443C39.0189 20.759 39.5815 20.6816 40.0095 20.4836L40.0096 19.3709ZM20.8465 18.5069C21.7802 18.5069 22.7067 18.2613 22.7067 17.0715C22.7067 15.8853 21.7541 15.6604 20.9064 15.6604H17.4929L16.134 17.0644L14.8197 15.6604H10.5231V19.9436H14.7547L16.1217 18.5256L17.4372 19.9436H19.5135V18.5069H20.8465ZM14.2135 19.0427H11.5869V18.1905H13.9323V17.3166H11.5869V16.5379H14.2652L15.4337 17.7861L14.2135 19.0427ZM16.8053 17.7884L18.4455 19.5331V16.0992L16.8053 17.7884ZM20.8711 17.6286H19.4906V16.5379H20.8835C21.2692 16.5379 21.537 16.6885 21.537 17.063C21.537 17.4335 21.2816 17.6286 20.8711 17.6286ZM31.6691 15.6604H28.1037L28.1036 19.9436H31.6691V19.0548L29.1675 19.0509V18.1988H31.6081V17.3249H29.1675V16.5462H31.6691V15.6604ZM26.7329 17.9531C26.9707 18.0372 27.165 18.1879 27.2562 18.3126C27.407 18.5218 27.4288 18.717 27.4332 19.0944V19.9436H26.3606V19.4077C26.3606 19.382 26.3608 19.355 26.3611 19.3271C26.3635 19.0756 26.3666 18.7486 26.1879 18.5693C26.0318 18.4159 25.7939 18.3792 25.4042 18.3792H24.2625V19.9436H23.189V15.6605H25.6555C26.1962 15.6605 26.5901 15.6834 26.9408 15.8626C27.2779 16.0578 27.49 16.3251 27.49 16.8138C27.49 17.4973 27.014 17.8462 26.7329 17.9531ZM25.6017 17.4999C25.8095 17.4999 25.9862 17.4929 26.1291 17.4116C26.2675 17.3314 26.3503 17.1838 26.3503 17.0006C26.3503 16.8175 26.2676 16.6847 26.1291 16.6154C25.9999 16.5419 25.8095 16.538 25.6193 16.538H24.3039V17.4999H25.6017ZM35.7728 17.6845C35.981 17.8907 36.0923 18.1511 36.0923 18.5919C36.0923 19.5132 35.4916 19.9434 34.4141 19.9434H32.3335V19.0249H34.4058C34.6085 19.0249 34.7521 18.9993 34.8421 18.9189C34.9156 18.8527 34.9683 18.7564 34.9683 18.6396C34.9683 18.5147 34.9113 18.4157 34.8379 18.3563C34.7563 18.291 34.6436 18.2613 34.4575 18.2613C34.3922 18.2592 34.3257 18.2574 34.2585 18.2557C33.3001 18.2307 32.2074 18.2023 32.2074 16.9357C32.2074 16.3144 32.6147 15.6605 33.7347 15.6605H35.8764V16.5721H33.9168C33.7225 16.5721 33.5962 16.5792 33.4888 16.6495C33.3718 16.7188 33.3284 16.8218 33.3284 16.9575C33.3284 17.1191 33.4277 17.2291 33.5622 17.2766C33.6748 17.3142 33.7959 17.3252 33.9778 17.3252L34.5529 17.3401C35.1328 17.3535 35.5309 17.4497 35.7728 17.6845ZM38.0649 16.5379H40.0118V17.7566C40.0071 17.7509 40.0026 17.7451 39.998 17.7394C39.9735 17.7085 39.9493 17.6781 39.9127 17.6506C39.6749 17.4159 39.285 17.3197 38.7008 17.3058L38.1217 17.291C37.9438 17.291 37.8228 17.2801 37.7101 17.2425C37.5716 17.1949 37.4765 17.085 37.4765 16.9235C37.4765 16.7875 37.5199 16.6846 37.6326 16.6153C37.7413 16.5449 37.8706 16.5379 38.0649 16.5379Z" fill="white"></path></svg>