<svg width="42" height="28" viewBox="0 0 42 28" fill="none" xmlns="http://www.w3.org/2000/svg"><path d="M2.5 4.63492C2.5 3.46384 3.46804 2.5 4.6791 2.5H37.3209C38.5323 2.5 39.5 3.46354 39.5 4.63492V23.3651C39.5 24.5362 38.532 25.5 37.3209 25.5H4.6791C3.46766 25.5 2.5 24.5365 2.5 23.3651V4.63492Z" fill="white" stroke="white"></path><path fill-rule="evenodd" clip-rule="evenodd" d="M24.5701 12.2476C24.5701 10.8522 23.3687 9.72264 21.8865 9.72264L21.8865 9.72259C20.4043 9.72259 19.2028 10.8522 19.2028 12.2476V12.2492C19.2028 13.6446 20.4043 14.7758 21.8865 14.7758C23.3687 14.7758 24.5701 13.6446 24.5701 12.2492V12.2476ZM36.6837 25.0643H14.6756C30.4058 22.1164 37.3868 17.1664 38.9071 16.0884C38.9501 16.0579 38.9888 16.0304 39.0232 16.0062V22.8901C39.0232 24.7212 38.3502 25.0643 36.6837 25.0643Z" fill="#F47216"></path><path fill-rule="evenodd" clip-rule="evenodd" d="M17.6719 9.75535C18.0953 9.75535 18.4503 9.84081 18.8824 10.0471V11.137C18.4731 10.7603 18.1181 10.6026 17.6486 10.6026C16.7257 10.6026 16 11.3219 16 12.2338C16 13.1954 16.7033 13.8719 17.6944 13.8719C18.1404 13.8719 18.4889 13.7224 18.8824 13.3518V14.4423C18.4349 14.6406 18.0723 14.7189 17.6486 14.7189C16.1502 14.7189 14.986 13.6365 14.986 12.2405C14.986 10.8596 16.1812 9.75535 17.6719 9.75535ZM13.0198 9.78539C13.5729 9.78539 14.079 9.96359 14.5021 10.312L13.9872 10.9467C13.731 10.6762 13.4886 10.5621 13.1938 10.5621C12.7697 10.5621 12.4608 10.7894 12.4608 11.0885C12.4608 11.345 12.6342 11.4808 13.2246 11.6865C14.3439 12.0718 14.6756 12.4135 14.6756 13.168C14.6756 14.0874 13.9582 14.7274 12.9357 14.7274C12.187 14.7274 11.6426 14.4498 11.1893 13.8233L11.8249 13.247C12.0514 13.6595 12.4295 13.8804 12.8989 13.8804C13.3378 13.8804 13.6628 13.5953 13.6628 13.2105C13.6628 13.0111 13.5643 12.84 13.3678 12.7191C13.2688 12.6619 13.0728 12.5765 12.6876 12.4486C11.7634 12.1354 11.4464 11.8006 11.4464 11.1463C11.4464 10.3691 12.1273 9.78539 13.0198 9.78539ZM25.3389 9.86817H24.264L26.4047 14.7394H26.9342L29.1136 9.86817H28.0469L26.6842 13.0582L25.3389 9.86817ZM5.2294 9.87545H6.67371C8.2695 9.87545 9.38193 10.8518 9.38193 12.2535C9.38193 12.9524 9.04162 13.6281 8.4661 14.0766C7.98188 14.455 7.43012 14.6248 6.66614 14.6248H5.2294V9.87545ZM10.8186 9.87545H9.83467V14.6248H10.8186V9.87545ZM29.5585 9.87545H32.349V10.6802H30.5418V11.7344H32.2824V12.5387H30.5418V13.8207H32.349V14.6248H29.5585V9.87545ZM34.4597 9.87545H33.0008V14.6248H33.9835V12.7169H34.1118L35.4737 14.6248H36.6837L35.0958 12.624C35.837 12.482 36.2448 12.0049 36.2448 11.2777C36.2448 10.3885 35.5945 9.87545 34.4597 9.87545ZM33.9835 10.6235V12.0618H34.271C34.8994 12.0618 35.2324 11.805 35.2324 11.3276C35.2324 10.8654 34.8993 10.6235 34.2866 10.6235H33.9835ZM6.21268 13.8207V10.6802H6.47673C7.11256 10.6802 7.49829 10.7874 7.82332 11.0643C8.16358 11.3496 8.36827 11.7916 8.36827 12.2466C8.36827 12.7024 8.16358 13.158 7.82332 13.4433C7.51414 13.7061 7.11256 13.8207 6.47673 13.8207H6.21268Z" fill="black"></path></svg>