<svg width="42" height="28" viewBox="0 0 42 28" fill="none" xmlns="http://www.w3.org/2000/svg"><path d="M3.94872 2H38.0513C39.1276 2 40 2.85963 40 3.92V24.08C40 25.1404 39.1276 26 38.0513 26H3.94872C2.87249 26 2 25.1404 2 24.08V3.92C2 2.85963 2.87249 2 3.94872 2Z" fill="#0E4595" stroke="white"></path><path fill-rule="evenodd" clip-rule="evenodd" d="M27.8869 9.62454C27.3795 9.43217 26.5843 9.22573 25.5914 9.22573C23.0606 9.22573 21.2779 10.5135 21.2628 12.3593C21.2484 13.7238 22.5355 14.4849 23.5069 14.9391C24.5039 15.4045 24.839 15.7013 24.8343 16.117C24.828 16.7534 24.0381 17.0442 23.302 17.0442C22.2769 17.0442 21.7323 16.9003 20.8911 16.5458L20.5611 16.3949L20.2016 18.5206C20.7998 18.7856 21.9061 19.0152 23.0546 19.0271C25.7469 19.0271 27.4946 17.754 27.5146 15.783C27.5241 14.7028 26.8418 13.8808 25.3641 13.2031C24.4689 12.7639 23.9207 12.4707 23.9265 12.0259C23.9265 11.6313 24.3906 11.2092 25.3932 11.2092C26.2308 11.1961 26.8375 11.3806 27.3103 11.5729L27.5397 11.6826L27.8869 9.62454ZM16.0736 18.9152L17.6749 9.41985H20.2362L18.6337 18.9152H16.0736ZM32.4986 9.4197H34.4778V9.41941L36.5508 18.909H34.1741C34.1741 18.909 33.9392 17.8185 33.8626 17.4861C33.6649 17.4861 32.8401 17.485 32.0638 17.4839L32.0626 17.4839L32.0607 17.4839L32.0561 17.4839C31.3683 17.483 30.7203 17.4821 30.5824 17.4821C30.4829 17.7389 30.0432 18.909 30.0432 18.909H27.3537L31.1575 10.2071C31.4267 9.58884 31.8855 9.4197 32.4986 9.4197ZM31.3377 15.5513C31.5495 15.0042 32.3582 12.8969 32.3582 12.8969C32.3509 12.909 32.3985 12.7844 32.4642 12.6121L32.4642 12.6119C32.5363 12.4231 32.6301 12.177 32.6977 11.9906L32.8708 12.8093C32.8708 12.8093 33.3613 15.076 33.4638 15.5513H31.3377ZM11.3918 15.8952L13.8993 9.4197V9.41961H16.6123L12.5801 18.897L9.87022 18.9002L7.57745 10.5961C9.20336 11.4188 10.6578 13.0623 11.1246 14.5792L11.3918 15.8952Z" fill="white"></path><path d="M9.05217 9.41936H4.9222L4.88951 9.61693C8.10254 10.4029 10.2286 12.3023 11.1113 14.5844L10.2132 10.2208C10.0582 9.61959 9.60854 9.44017 9.05226 9.41917" fill="#F2AE14"></path></svg>